<svg id="visual" viewBox="0 0 960 540" width="960" height="540" xmlns="http://www.w3.org/2000/svg" xmlns:xlink="http://www.w3.org/1999/xlink" version="1.1"><g stroke-width="1" stroke-linejoin="bevel"><path d="M508 305L565 226L462 201Z" fill="#3c3c3d" stroke="#3c3c3d"></path><path d="M508 305L608 333L565 226Z" fill="#343435" stroke="#343435"></path><path d="M565 226L490 103L462 201Z" fill="#282829" stroke="#282829"></path><path d="M352 136L326 247L462 201Z" fill="#252525" stroke="#252525"></path><path d="M462 201L342 332L508 305Z" fill="#1d1d1e" stroke="#1d1d1e"></path><path d="M326 247L342 332L462 201Z" fill="#3c3c3d" stroke="#3c3c3d"></path><path d="M508 305L447 423L608 333Z" fill="#2c2c2d" stroke="#2c2c2d"></path><path d="M490 103L352 136L462 201Z" fill="#3c3c3d" stroke="#3c3c3d"></path><path d="M342 332L447 423L508 305Z" fill="#383839" stroke="#383839"></path><path d="M737 204L613 77L565 226Z" fill="#383839" stroke="#383839"></path><path d="M565 226L613 77L490 103Z" fill="#212121" stroke="#212121"></path><path d="M628 449L701 330L608 333Z" fill="#404041" stroke="#404041"></path><path d="M608 333L701 330L565 226Z" fill="#282829" stroke="#282829"></path><path d="M701 330L737 204L565 226Z" fill="#343435" stroke="#343435"></path><path d="M447 423L628 449L608 333Z" fill="#1d1d1e" stroke="#1d1d1e"></path><path d="M352 136L266 228L326 247Z" fill="#404041" stroke="#404041"></path><path d="M326 247L259 313L342 332Z" fill="#252525" stroke="#252525"></path><path d="M613 77L511 0L490 103Z" fill="#282829" stroke="#282829"></path><path d="M490 103L389 0L352 136Z" fill="#1a1a1a" stroke="#1a1a1a"></path><path d="M342 332L345 431L447 423Z" fill="#404041" stroke="#404041"></path><path d="M447 423L595 540L628 449Z" fill="#212121" stroke="#212121"></path><path d="M259 313L345 431L342 332Z" fill="#1a1a1a" stroke="#1a1a1a"></path><path d="M266 228L259 313L326 247Z" fill="#1a1a1a" stroke="#1a1a1a"></path><path d="M695 0L606 0L613 77Z" fill="#1d1d1e" stroke="#1d1d1e"></path><path d="M613 77L606 0L511 0Z" fill="#383839" stroke="#383839"></path><path d="M511 0L389 0L490 103Z" fill="#1a1a1a" stroke="#1a1a1a"></path><path d="M352 136L242 89L266 228Z" fill="#1a1a1a" stroke="#1a1a1a"></path><path d="M737 204L742 107L613 77Z" fill="#212121" stroke="#212121"></path><path d="M628 449L721 423L701 330Z" fill="#2c2c2d" stroke="#2c2c2d"></path><path d="M701 330L804 322L737 204Z" fill="#303031" stroke="#303031"></path><path d="M376 540L451 540L447 423Z" fill="#2c2c2d" stroke="#2c2c2d"></path><path d="M628 449L707 540L721 423Z" fill="#282829" stroke="#282829"></path><path d="M389 0L242 89L352 136Z" fill="#282829" stroke="#282829"></path><path d="M266 228L149 297L259 313Z" fill="#1d1d1e" stroke="#1d1d1e"></path><path d="M721 423L804 322L701 330Z" fill="#404041" stroke="#404041"></path><path d="M737 204L814 233L742 107Z" fill="#1a1a1a" stroke="#1a1a1a"></path><path d="M804 322L814 233L737 204Z" fill="#3c3c3d" stroke="#3c3c3d"></path><path d="M825 0L695 0L742 107Z" fill="#303031" stroke="#303031"></path><path d="M742 107L695 0L613 77Z" fill="#303031" stroke="#303031"></path><path d="M451 540L595 540L447 423Z" fill="#383839" stroke="#383839"></path><path d="M345 431L376 540L447 423Z" fill="#212121" stroke="#212121"></path><path d="M247 540L376 540L345 431Z" fill="#383839" stroke="#383839"></path><path d="M149 297L232 451L259 313Z" fill="#212121" stroke="#212121"></path><path d="M259 313L232 451L345 431Z" fill="#303031" stroke="#303031"></path><path d="M389 0L245 0L242 89Z" fill="#2c2c2d" stroke="#2c2c2d"></path><path d="M595 540L707 540L628 449Z" fill="#252525" stroke="#252525"></path><path d="M721 423L835 432L804 322Z" fill="#383839" stroke="#383839"></path><path d="M87 182L149 297L266 228Z" fill="#1d1d1e" stroke="#1d1d1e"></path><path d="M132 125L266 228L242 89Z" fill="#1a1a1a" stroke="#1a1a1a"></path><path d="M707 540L835 432L721 423Z" fill="#282829" stroke="#282829"></path><path d="M960 324L960 186L814 233Z" fill="#252525" stroke="#252525"></path><path d="M960 186L851 76L814 233Z" fill="#1d1d1e" stroke="#1d1d1e"></path><path d="M814 233L851 76L742 107Z" fill="#282829" stroke="#282829"></path><path d="M138 0L132 125L242 89Z" fill="#252525" stroke="#252525"></path><path d="M232 451L247 540L345 431Z" fill="#383839" stroke="#383839"></path><path d="M150 540L247 540L232 451Z" fill="#212121" stroke="#212121"></path><path d="M851 76L825 0L742 107Z" fill="#404041" stroke="#404041"></path><path d="M132 125L87 182L266 228Z" fill="#303031" stroke="#303031"></path><path d="M149 297L110 456L232 451Z" fill="#252525" stroke="#252525"></path><path d="M245 0L138 0L242 89Z" fill="#303031" stroke="#303031"></path><path d="M0 136L0 185L87 182Z" fill="#282829" stroke="#282829"></path><path d="M0 309L110 456L149 297Z" fill="#404041" stroke="#404041"></path><path d="M707 540L852 540L835 432Z" fill="#383839" stroke="#383839"></path><path d="M960 324L814 233L804 322Z" fill="#3c3c3d" stroke="#3c3c3d"></path><path d="M960 324L804 322L835 432Z" fill="#2c2c2d" stroke="#2c2c2d"></path><path d="M851 76L960 0L825 0Z" fill="#3c3c3d" stroke="#3c3c3d"></path><path d="M960 427L960 324L835 432Z" fill="#383839" stroke="#383839"></path><path d="M110 456L150 540L232 451Z" fill="#1d1d1e" stroke="#1d1d1e"></path><path d="M960 186L960 113L851 76Z" fill="#1a1a1a" stroke="#1a1a1a"></path><path d="M852 540L960 427L835 432Z" fill="#343435" stroke="#343435"></path><path d="M0 136L87 182L132 125Z" fill="#404041" stroke="#404041"></path><path d="M87 182L0 309L149 297Z" fill="#343435" stroke="#343435"></path><path d="M0 185L0 309L87 182Z" fill="#383839" stroke="#383839"></path><path d="M110 456L0 540L150 540Z" fill="#212121" stroke="#212121"></path><path d="M960 113L960 0L851 76Z" fill="#3c3c3d" stroke="#3c3c3d"></path><path d="M0 0L0 136L132 125Z" fill="#252525" stroke="#252525"></path><path d="M0 309L0 433L110 456Z" fill="#252525" stroke="#252525"></path><path d="M852 540L960 540L960 427Z" fill="#303031" stroke="#303031"></path><path d="M138 0L0 0L132 125Z" fill="#1d1d1e" stroke="#1d1d1e"></path><path d="M0 433L0 540L110 456Z" fill="#343435" stroke="#343435"></path></g></svg>