<svg id="visual" viewBox="0 0 960 540" width="960" height="540" xmlns="http://www.w3.org/2000/svg" xmlns:xlink="http://www.w3.org/1999/xlink" version="1.1"><path d="M0 148L14.5 154.8C29 161.7 58 175.3 87.2 176.8C116.3 178.3 145.7 167.7 174.8 168.5C204 169.3 233 181.7 262 187C291 192.3 320 190.7 349 184.5C378 178.3 407 167.7 436.2 171.5C465.3 175.3 494.7 193.7 523.8 192.8C553 192 582 172 611 161.8C640 151.7 669 151.3 698 159.7C727 168 756 185 785.2 187.2C814.3 189.3 843.7 176.7 872.8 177.8C902 179 931 194 945.5 201.5L960 209L960 0L945.5 0C931 0 902 0 872.8 0C843.7 0 814.3 0 785.2 0C756 0 727 0 698 0C669 0 640 0 611 0C582 0 553 0 523.8 0C494.7 0 465.3 0 436.2 0C407 0 378 0 349 0C320 0 291 0 262 0C233 0 204 0 174.8 0C145.7 0 116.3 0 87.2 0C58 0 29 0 14.5 0L0 0Z" fill="#faad3f"></path><path d="M0 169L14.5 168.2C29 167.3 58 165.7 87.2 167.7C116.3 169.7 145.7 175.3 174.8 173.2C204 171 233 161 262 156.3C291 151.7 320 152.3 349 149.5C378 146.7 407 140.3 436.2 138.3C465.3 136.3 494.7 138.7 523.8 137C553 135.3 582 129.7 611 135C640 140.3 669 156.7 698 162.8C727 169 756 165 785.2 161C814.3 157 843.7 153 872.8 145.5C902 138 931 127 945.5 121.5L960 116L960 0L945.5 0C931 0 902 0 872.8 0C843.7 0 814.3 0 785.2 0C756 0 727 0 698 0C669 0 640 0 611 0C582 0 553 0 523.8 0C494.7 0 465.3 0 436.2 0C407 0 378 0 349 0C320 0 291 0 262 0C233 0 204 0 174.8 0C145.7 0 116.3 0 87.2 0C58 0 29 0 14.5 0L0 0Z" fill="#f9a538"></path><path d="M0 129L14.5 132.7C29 136.3 58 143.7 87.2 142.5C116.3 141.3 145.7 131.7 174.8 124.8C204 118 233 114 262 114.7C291 115.3 320 120.7 349 126C378 131.3 407 136.7 436.2 137.8C465.3 139 494.7 136 523.8 128.7C553 121.3 582 109.7 611 103.7C640 97.7 669 97.3 698 103.5C727 109.7 756 122.3 785.2 126.2C814.3 130 843.7 125 872.8 128.5C902 132 931 144 945.5 150L960 156L960 0L945.5 0C931 0 902 0 872.8 0C843.7 0 814.3 0 785.2 0C756 0 727 0 698 0C669 0 640 0 611 0C582 0 553 0 523.8 0C494.7 0 465.3 0 436.2 0C407 0 378 0 349 0C320 0 291 0 262 0C233 0 204 0 174.8 0C145.7 0 116.3 0 87.2 0C58 0 29 0 14.5 0L0 0Z" fill="#f89c31"></path><path d="M0 94L14.5 98.8C29 103.7 58 113.3 87.2 110.7C116.3 108 145.7 93 174.8 88.7C204 84.3 233 90.7 262 89.2C291 87.7 320 78.3 349 78.8C378 79.3 407 89.7 436.2 89.3C465.3 89 494.7 78 523.8 81.7C553 85.3 582 103.7 611 106.7C640 109.7 669 97.3 698 94C727 90.7 756 96.3 785.2 97.8C814.3 99.3 843.7 96.7 872.8 93.8C902 91 931 88 945.5 86.5L960 85L960 0L945.5 0C931 0 902 0 872.8 0C843.7 0 814.3 0 785.2 0C756 0 727 0 698 0C669 0 640 0 611 0C582 0 553 0 523.8 0C494.7 0 465.3 0 436.2 0C407 0 378 0 349 0C320 0 291 0 262 0C233 0 204 0 174.8 0C145.7 0 116.3 0 87.2 0C58 0 29 0 14.5 0L0 0Z" fill="#f6942b"></path><path d="M0 84L14.5 84C29 84 58 84 87.2 84.2C116.3 84.3 145.7 84.7 174.8 82.8C204 81 233 77 262 71.3C291 65.7 320 58.3 349 58.7C378 59 407 67 436.2 70.7C465.3 74.3 494.7 73.7 523.8 69C553 64.3 582 55.7 611 53.7C640 51.7 669 56.3 698 62.3C727 68.3 756 75.7 785.2 73.2C814.3 70.7 843.7 58.3 872.8 53.5C902 48.7 931 51.3 945.5 52.7L960 54L960 0L945.5 0C931 0 902 0 872.8 0C843.7 0 814.3 0 785.2 0C756 0 727 0 698 0C669 0 640 0 611 0C582 0 553 0 523.8 0C494.7 0 465.3 0 436.2 0C407 0 378 0 349 0C320 0 291 0 262 0C233 0 204 0 174.8 0C145.7 0 116.3 0 87.2 0C58 0 29 0 14.5 0L0 0Z" fill="#f58a25"></path><path d="M0 32L14.5 30.2C29 28.3 58 24.7 87.2 23.2C116.3 21.7 145.7 22.3 174.8 24.3C204 26.3 233 29.7 262 30.3C291 31 320 29 349 28.2C378 27.3 407 27.7 436.2 30.5C465.3 33.3 494.7 38.7 523.8 40C553 41.3 582 38.7 611 40C640 41.3 669 46.7 698 44.2C727 41.7 756 31.3 785.2 29.2C814.3 27 843.7 33 872.8 34.5C902 36 931 33 945.5 31.5L960 30L960 0L945.5 0C931 0 902 0 872.8 0C843.7 0 814.3 0 785.2 0C756 0 727 0 698 0C669 0 640 0 611 0C582 0 553 0 523.8 0C494.7 0 465.3 0 436.2 0C407 0 378 0 349 0C320 0 291 0 262 0C233 0 204 0 174.8 0C145.7 0 116.3 0 87.2 0C58 0 29 0 14.5 0L0 0Z" fill="#f48120"></path></svg>