<svg id="visual" viewBox="0 0 960 540" width="960" height="540" xmlns="http://www.w3.org/2000/svg" xmlns:xlink="http://www.w3.org/1999/xlink" version="1.1"><path d="M0 374L14.5 367.2C29 360.3 58 346.7 87.2 350.3C116.3 354 145.7 375 174.8 381.5C204 388 233 380 262 369.5C291 359 320 346 349 347.5C378 349 407 365 436.2 367C465.3 369 494.7 357 523.8 351.3C553 345.7 582 346.3 611 347.2C640 348 669 349 698 347.2C727 345.3 756 340.7 785.2 346C814.3 351.3 843.7 366.7 872.8 366C902 365.3 931 348.7 945.5 340.3L960 332L960 541L945.5 541C931 541 902 541 872.8 541C843.7 541 814.3 541 785.2 541C756 541 727 541 698 541C669 541 640 541 611 541C582 541 553 541 523.8 541C494.7 541 465.3 541 436.2 541C407 541 378 541 349 541C320 541 291 541 262 541C233 541 204 541 174.8 541C145.7 541 116.3 541 87.2 541C58 541 29 541 14.5 541L0 541Z" fill="#faad3f"></path><path d="M0 387L14.5 387C29 387 58 387 87.2 383.3C116.3 379.7 145.7 372.3 174.8 378.3C204 384.3 233 403.7 262 401.2C291 398.7 320 374.3 349 367.3C378 360.3 407 370.7 436.2 374C465.3 377.3 494.7 373.7 523.8 370C553 366.3 582 362.7 611 364C640 365.3 669 371.7 698 375C727 378.3 756 378.7 785.2 383.8C814.3 389 843.7 399 872.8 402.8C902 406.7 931 404.3 945.5 403.2L960 402L960 541L945.5 541C931 541 902 541 872.8 541C843.7 541 814.3 541 785.2 541C756 541 727 541 698 541C669 541 640 541 611 541C582 541 553 541 523.8 541C494.7 541 465.3 541 436.2 541C407 541 378 541 349 541C320 541 291 541 262 541C233 541 204 541 174.8 541C145.7 541 116.3 541 87.2 541C58 541 29 541 14.5 541L0 541Z" fill="#f9a538"></path><path d="M0 400L14.5 397C29 394 58 388 87.2 393.7C116.3 399.3 145.7 416.7 174.8 418.2C204 419.7 233 405.3 262 399.2C291 393 320 395 349 403.7C378 412.3 407 427.7 436.2 435.2C465.3 442.7 494.7 442.3 523.8 442.5C553 442.7 582 443.3 611 442.5C640 441.7 669 439.3 698 431.3C727 423.3 756 409.7 785.2 405C814.3 400.3 843.7 404.7 872.8 406C902 407.3 931 405.7 945.5 404.8L960 404L960 541L945.5 541C931 541 902 541 872.8 541C843.7 541 814.3 541 785.2 541C756 541 727 541 698 541C669 541 640 541 611 541C582 541 553 541 523.8 541C494.7 541 465.3 541 436.2 541C407 541 378 541 349 541C320 541 291 541 262 541C233 541 204 541 174.8 541C145.7 541 116.3 541 87.2 541C58 541 29 541 14.5 541L0 541Z" fill="#f89c31"></path><path d="M0 421L14.5 424.2C29 427.3 58 433.7 87.2 440C116.3 446.3 145.7 452.7 174.8 454.8C204 457 233 455 262 451.8C291 448.7 320 444.3 349 445.7C378 447 407 454 436.2 456.5C465.3 459 494.7 457 523.8 452.5C553 448 582 441 611 440.2C640 439.3 669 444.7 698 450.5C727 456.3 756 462.7 785.2 465.3C814.3 468 843.7 467 872.8 463.3C902 459.7 931 453.3 945.5 450.2L960 447L960 541L945.5 541C931 541 902 541 872.8 541C843.7 541 814.3 541 785.2 541C756 541 727 541 698 541C669 541 640 541 611 541C582 541 553 541 523.8 541C494.7 541 465.3 541 436.2 541C407 541 378 541 349 541C320 541 291 541 262 541C233 541 204 541 174.8 541C145.7 541 116.3 541 87.2 541C58 541 29 541 14.5 541L0 541Z" fill="#f6942b"></path><path d="M0 475L14.5 477.3C29 479.7 58 484.3 87.2 480.3C116.3 476.3 145.7 463.7 174.8 462.8C204 462 233 473 262 478.5C291 484 320 484 349 484.5C378 485 407 486 436.2 482.2C465.3 478.3 494.7 469.7 523.8 469.8C553 470 582 479 611 479.7C640 480.3 669 472.7 698 466.8C727 461 756 457 785.2 461.5C814.3 466 843.7 479 872.8 481.8C902 484.7 931 477.3 945.5 473.7L960 470L960 541L945.5 541C931 541 902 541 872.8 541C843.7 541 814.3 541 785.2 541C756 541 727 541 698 541C669 541 640 541 611 541C582 541 553 541 523.8 541C494.7 541 465.3 541 436.2 541C407 541 378 541 349 541C320 541 291 541 262 541C233 541 204 541 174.8 541C145.7 541 116.3 541 87.2 541C58 541 29 541 14.5 541L0 541Z" fill="#f58a25"></path><path d="M0 506L14.5 503.7C29 501.3 58 496.7 87.2 498.8C116.3 501 145.7 510 174.8 513.3C204 516.7 233 514.3 262 509.3C291 504.3 320 496.7 349 497.7C378 498.7 407 508.3 436.2 509C465.3 509.7 494.7 501.3 523.8 496C553 490.7 582 488.3 611 487.5C640 486.7 669 487.3 698 491.5C727 495.7 756 503.3 785.2 503C814.3 502.7 843.7 494.3 872.8 493.2C902 492 931 498 945.5 501L960 504L960 541L945.5 541C931 541 902 541 872.8 541C843.7 541 814.3 541 785.2 541C756 541 727 541 698 541C669 541 640 541 611 541C582 541 553 541 523.8 541C494.7 541 465.3 541 436.2 541C407 541 378 541 349 541C320 541 291 541 262 541C233 541 204 541 174.8 541C145.7 541 116.3 541 87.2 541C58 541 29 541 14.5 541L0 541Z" fill="#f48120"></path></svg>